<svg width="14" height="14" fill="none" xmlns="http://www.w3.org/2000/svg"><path d="M11.083 2.333H9.917V1.75a.583.583 0 00-1.167 0v.583h-3.5V1.75a.583.583 0 00-1.167 0v.583H2.917a1.75 1.75 0 00-1.75 1.75v7a1.75 1.75 0 001.75 1.75h8.166a1.75 1.75 0 001.75-1.75v-7a1.75 1.75 0 00-1.75-1.75zm.584 8.75a.583.583 0 01-.584.584H2.917a.583.583 0 01-.584-.584V7h9.334v4.083zm0-5.25H2.333v-1.75a.583.583 0 01.584-.583h1.166v.583a.583.583 0 001.167 0V3.5h3.5v.583a.583.583 0 001.167 0V3.5h1.166a.583.583 0 01.584.583v1.75z" fill="#111563"/></svg>